<?xml version="1.0" encoding="utf-8"?>
<!-- Generator: Adobe Illustrator 23.0.6, SVG Export Plug-In . SVG Version: 6.00 Build 0)  -->
<svg version="1.1" id="Layer_1" xmlns="http://www.w3.org/2000/svg" xmlns:xlink="http://www.w3.org/1999/xlink" x="0px" y="0px"
	 viewBox="0 0 850.39 850.39" style="enable-background:new 0 0 850.39 850.39;" xml:space="preserve">
<style type="text/css">
	.st0{fill:#0D7B70;}
	.st1{fill:#FF9800;}
</style>
<g>
	<g>
		<g>
			<path class="st0" d="M465.37,419c5.93,1.73,12.14-1.68,13.86-7.61c1.09-3.73,0.14-7.57-2.18-10.33c1.23,2.08,1.63,4.64,0.9,7.15
				c-1.4,4.8-6.43,7.56-11.23,6.16c-4.8-1.4-7.56-6.43-6.16-11.23c0.73-2.5,2.45-4.45,4.6-5.54c-3.45,1.08-6.31,3.81-7.39,7.54
				C456.04,411.06,459.44,417.27,465.37,419z"/>
			<path class="st0" d="M519.56,504.75c-37.5-21.71-45.4-31.58-47.37-37.5v-1.54c1.2-1.08,1.97-2.64,1.97-4.39
				c0-1.65-0.68-3.14-1.77-4.21c0.08-3.15,0.14-7.18,0.09-11.41c1.03-1.07,1.68-2.51,1.68-4.12c0-1.73-0.75-3.27-1.93-4.35
				c-0.45-8.31-1.54-15.39-3.99-15.39c-2.45,0-3.54,7.08-3.99,15.39c-1.18,1.08-1.93,2.62-1.93,4.35c0,1.6,0.64,3.05,1.68,4.12
				c-0.05,4.22,0.01,8.26,0.09,11.41c-1.09,1.07-1.77,2.56-1.77,4.21c0,1.75,0.77,3.3,1.97,4.39v1.54
				c-1.97,5.92-9.87,15.79-47.37,37.5c-37.5,21.71-29.61,73.03-29.61,73.03h21.87c0,0-5.76-37.45,21.61-53.29
				c18.14-10.5,26.79-17.21,30.98-21.8c1.66-1.82,4-2.88,6.47-2.88c2.47,0,4.81,1.06,6.47,2.88c4.19,4.59,12.83,11.29,30.98,21.8
				c27.37,15.84,21.61,53.29,21.61,53.29h21.87C549.17,577.78,557.06,526.46,519.56,504.75z"/>
		</g>
		<g>
			<path class="st1" d="M319.33,425.94v151.84h14.1V465.99c0-17.15,13.77-31.27,30.92-31.37c0.18,0,0.35,0,0.53,0
				c0.18,0,0.35,0,0.53,0c17.15,0.1,30.92,14.22,30.92,31.37v45.28c3.84-4.47,8.5-8.58,14.1-12.14v-73.19c0,0-19.52-4.34-45.55-4.34
				C338.85,421.6,319.33,425.94,319.33,425.94z"/>
			<path class="st1" d="M364.88,393.41c-37.82,0-64.35,8.19-64.35,8.19v3.38v15.5c0,0,31.41-8.19,64.35-8.19
				c32.94,0,64.35,8.19,64.35,8.19v-15.5v-3.38C429.23,401.59,402.71,393.41,364.88,393.41z"/>
			<path class="st1" d="M416.06,390.51v-10.54v-4.1c0,0-21.1-6.51-51.17-6.51c-30.08,0-51.17,6.51-51.17,6.51v4.1v10.54
				c0,0,24.98-6.51,51.17-6.51C391.08,384,416.06,390.51,416.06,390.51z"/>
			<path class="st1" d="M390.97,362.85c-3.26-12.52-22.48-19.33-22.48-19.33V339v-13.29l-2.46-70.8c0-2.45-2.17-2.48-2.17,0
				l-2.6,70.8V339v4.52c0,0-19.21,6.81-22.48,19.33c7.47-0.93,16.3-1.62,26.09-1.62C374.67,361.22,383.5,361.92,390.97,362.85z"/>
		</g>
	</g>
	<g>
		<path class="st0" d="M210.45,510.96c-7.53-6.94-14.7-14.28-21.94-21.54c-10.21-10.22-20.29-20.57-30.49-30.79
			c-10.11-10.14-20.25-20.26-30.51-30.25c-2.66-2.59-2.41-4.24,0.16-6.78c16.29-16.07,32.38-32.34,48.64-48.44
			c2.12-2.1,2.6-3.63,1.22-6.5c-4.09-8.47-7.17-17.32-7.9-26.82c-0.11-1.48,0.57-3.6-0.9-4.23c-1.72-0.74-2.57,1.52-3.82,2.44
			c-0.61,0.45-1.08,1.08-1.62,1.62c-6.94,7.02-13.85,14.05-20.82,21.04c-9.56,9.6-19.13,19.17-28.73,28.73
			c-5.65,5.62-11.38,11.15-17.04,16.76c-5.58,5.53-11.11,11.11-16.65,16.68c-1.53,1.54-1.58,2.86,0.19,4.46
			c2.82,2.54,5.41,5.35,8.1,8.04c20.9,20.9,41.72,41.88,62.72,62.68c13.65,13.51,26.31,28.09,41.22,40.25
			c15.72,12.81,34.31,16.1,53.99,13.33c3.68-0.52,7.21-1.36,10.59-2.46c-6.89-9.35-13-19.3-18.28-29.75
			C228.18,520.14,218.48,518.36,210.45,510.96z"/>
		<path class="st0" d="M342.61,206.72c9.08-8.89,18.13-17.81,27.11-26.8c17.6-17.63,35.15-35.3,52.66-53
			c1.66-1.67,2.81-2.71,4.69-0.19c1.42,1.9,3.36,3.42,5.06,5.11c6.3,6.24,12.62,12.47,18.91,18.71c8.9,8.83,17.85,17.63,26.65,26.57
			c1.92,1.96,3.44,1.81,5.66,0.67c4.97-2.56,10.21-4.43,15.64-5.94c5.26-1.47,10.62-1.97,17-2.47c-4.04-4.09-7.36-7.5-10.72-10.87
			c-25.67-25.66-51.33-51.32-77.02-76.97c-3.52-3.52-3.56-3.46-7.12,0.21c-6.96,7.16-13.87,14.37-20.94,21.42
			c-11.47,11.43-23.12,22.68-34.57,34.14c-15.74,15.76-31.39,31.59-47,47.47c-17.47,17.76-23.95,39-19.69,63.51
			c0.52,3,1.29,5.87,2.19,8.67c9.24-6.82,19.07-12.87,29.38-18.12C329.14,227.38,333.29,215.84,342.61,206.72z"/>
		<path class="st0" d="M769.27,422.57c-21.73-21.66-43.49-43.27-65.2-64.95c-13.1-13.09-26.07-26.31-39.17-39.4
			c-2.76-2.76-5.87-5.17-8.82-7.74c-14.01-9.23-29.16-13.82-46.14-12.38c-5.74,0.49-11.17,1.6-16.34,3.24
			c6.79,9.22,12.82,19.04,18.05,29.33c9.87-1.04,19.99,1.84,28,8.89c6.65,5.85,12.81,12.28,19.08,18.56
			c10.12,10.13,20.11,20.39,30.22,30.52c9.76,9.78,19.73,19.37,29.32,29.31c2.28,2.36,6.72,4,6.17,7.61
			c-0.49,3.18-4.23,5.21-6.62,7.63c-15,15.14-30.1,30.18-45.27,45.15c-1.52,1.5-1.47,2.43-0.58,4.2c2.73,5.45,4.9,11.13,6.49,17.05
			c1.38,5.11,1.92,10.35,2.5,16.19c1.37-1.22,2.25-1.92,3.04-2.71c19.02-19,38.01-38.04,57.05-57.02
			c10.1-10.07,20.28-20.05,30.42-30.08C771.52,424.34,770.24,423.54,769.27,422.57z"/>
		<path class="st0" d="M298.09,624.63c0.18,1.99,0.98,2.59,2.87,2.55c4.71-0.09,9.43-0.03,14.14-0.03c0,0,0,0.01,0,0.01
			c4.46,0.01,8.92-0.1,13.37,0.05c2.71,0.09,3.53-0.53,2.85-3.47c-0.96-4.2-1.23-8.27-0.87-12.19
			c-10.26-5.23-20.05-11.25-29.24-18.03C298.1,603.14,297.07,613.51,298.09,624.63z"/>
		<path class="st0" d="M552.02,226.11c-0.19-2.1-0.87-2.9-3-2.84c-4.58,0.11-9.17,0.03-13.76,0.03v-0.04
			c-4.33,0-8.67,0.12-12.99-0.04c-3.12-0.12-4.21,0.42-3.37,4.06c0.9,3.91,1.17,7.74,0.82,11.46c10.27,5.22,20.06,11.23,29.27,18.01
			C551.99,247.25,552.99,237.01,552.02,226.11z"/>
		<path class="st0" d="M234.5,297.7c-1.53,0-3.06-0.02-4.59,0c-6.75,0.12-6.7,0.16-6.78,6.76c-0.08,7.75-0.37,15.49-0.49,23.24
			c-0.04,2.57-0.01,4.94,4.02,3.64c2.71-0.88,5.78-1.1,8.65-0.93c1.14,0.07,2.26,0.2,3.37,0.35c5.24-10.33,11.28-20.17,18.1-29.42
			C249.88,299.01,242.5,297.7,234.5,297.7z"/>
		<path class="st1" d="M212.33,328.83c0.16-37.33,0.12-74.67-0.02-112.01c-0.01-3.7,1.21-4.37,4.56-4.35
			c23.32,0.13,46.64,0.05,69.96,0.09c2.08,0,3.77-0.13,4.37-2.56c2.58-10.36,8.34-18.99,14.87-27.21c0.53-0.67,1.43-1.29,1.01-2.3
			c-0.45-1.07-1.53-0.63-2.36-0.7c-0.76-0.07-1.53-0.05-2.29-0.05c-39.5,0.01-79,0.08-118.51-0.04c-3.75-0.01-4.33,1.4-4.32,4.64
			c0.1,24.97,0.05,49.95,0.06,74.93c0,23.32,0.11,46.64-0.04,69.96c-0.08,12.74,2.7,24.66,8.94,35.77
			c7.37,13.11,17.42,22.63,29.94,28.77c1.75-11.59,4.49-22.85,8.05-33.73C216.96,352.34,212.27,341.96,212.33,328.83z"/>
		<path class="st1" d="M517.22,212.76c38.74-0.35,77.49-0.13,116.24-0.32c3.73-0.02,4.34,1.28,4.32,4.57
			c-0.11,23.2,0,46.39-0.11,69.59c-0.01,2.9,0.74,4.31,3.66,5.08c9.49,2.53,17.62,7.67,25.16,13.83c0.98,0.8,1.84,2.19,3.16,1.72
			c1.53-0.55,0.82-2.23,0.82-3.4c0.04-40.02,0-80.04,0.11-120.06c0.01-3.24-0.98-4.05-4.09-4.03c-24.98,0.11-49.96,0.06-74.94,0.06
			c-24.34,0-48.69-0.05-73.03,0.03c-6.88,0.02-13.74,0.87-20.27,3.07c-18.78,6.32-33.47,18.98-41.78,35.57
			c11.63,1.74,22.92,4.48,33.84,8.05C497.07,218.01,506.04,212.86,517.22,212.76z"/>
		<path class="st1" d="M330.28,637.84c-37.97,0.06-75.93-0.02-113.9,0.09c-3.16,0.01-4.09-0.83-4.07-4.03
			c0.15-23.44,0.07-46.88,0.18-70.33c0.01-2.55-0.66-3.85-3.24-4.67c-6.89-2.19-13.36-5.3-19.4-9.4c-3.28-2.23-6.43-4.67-9.98-7.55
			c-0.13,1.55-0.24,2.27-0.24,3c0,40.64,0.06,81.29-0.04,121.93c-0.01,3.64,1.78,3.78,4.51,3.78c49.56-0.04,99.12-0.02,148.69-0.04
			c7.85,0,15.36-1.87,22.67-4.56c9.56-3.51,17.75-9.21,25.23-16.02c2.69-4.12,6.08-7.69,9.21-11.46c0.58-2.51,1.96-4.61,3.25-6.77
			c-11.43-1.76-22.53-4.49-33.27-8.02C352.89,632.37,342.28,637.82,330.28,637.84z"/>
		<path class="st1" d="M654.66,375.42c1.71-1.98,3.03-3.96,0.34-6.51c-6.24-5.91-12.3-12.01-18.36-18.11
			c-1.79-1.8-2.83-2.71-4.82,0.16c-2.41,3.48-5.12,6.38-8.06,8.81c3.59,10.89,6.35,22.15,8.11,33.75
			C640.62,389.04,648.17,382.93,654.66,375.42z"/>
		<path class="st1" d="M195.04,475.51c-1.92,2.35-1.72,3.75,0.31,5.72c6.11,5.95,12.19,11.94,18.08,18.11
			c2.25,2.35,3.27,2.44,5.24-0.45c2.32-3.41,4.96-6.25,7.84-8.65c-3.55-10.84-6.27-22.06-8.01-33.6
			C209.6,461.08,201.74,467.31,195.04,475.51z"/>
		<path class="st1" d="M390.26,212.58c-0.12-0.25-0.24-0.5-0.36-0.76c-3.04-3.83-6.67-7.19-9.14-11.48
			c-2.15-1.77-4.41-3.42-6.42-5.33c-2.08-1.97-3.71-1.53-5.52,0.31c-5.94,6.05-11.79,12.19-17.97,17.98
			c-2.64,2.48-2.46,3.48,0.47,5.5c3.36,2.31,6.18,4.93,8.58,7.78c10.82-3.56,22.01-6.3,33.53-8.06
			C392.38,216.55,391.32,214.56,390.26,212.58z"/>
		<polygon class="st1" points="389.89,638.58 389.89,638.58 389.89,638.59 		"/>
		<path class="st0" d="M507.78,643.67c-9.08,8.89-18.13,17.81-27.11,26.8c-17.6,17.63-35.15,35.3-52.66,53
			c-1.66,1.67-2.81,2.71-4.69,0.19c-1.42-1.9-3.36-3.42-5.06-5.11c-6.3-6.24-12.62-12.47-18.91-18.71
			c-8.9-8.83-17.85-17.63-26.65-26.57c-1.92-1.96-3.44-1.81-5.66-0.67c-4.97,2.56-10.21,4.43-15.64,5.94
			c-5.26,1.47-10.62,1.97-17,2.47c4.04,4.09,7.36,7.5,10.72,10.87c25.67,25.66,51.34,51.32,77.02,76.97
			c3.52,3.52,3.56,3.46,7.12-0.21c6.96-7.16,13.87-14.37,20.94-21.42c11.47-11.43,23.12-22.68,34.57-34.14
			c15.74-15.76,31.39-31.59,47-47.47c17.47-17.76,23.95-39,19.69-63.51c-0.52-3-1.29-5.87-2.19-8.67
			c-9.24,6.82-19.07,12.87-29.38,18.12C521.26,623.02,517.1,634.55,507.78,643.67z"/>
		<path class="st0" d="M615.89,552.69c1.53,0,3.06,0.02,4.59,0c6.75-0.12,6.7-0.16,6.78-6.76c0.08-7.75,0.37-15.49,0.49-23.24
			c0.04-2.57,0.01-4.94-4.02-3.64c-2.71,0.88-5.78,1.1-8.65,0.93c-1.14-0.07-2.26-0.2-3.37-0.35c-5.24,10.33-11.28,20.17-18.1,29.42
			C600.51,551.39,607.89,552.69,615.89,552.69z"/>
		<path class="st1" d="M638.07,521.56c-0.16,37.33-0.12,74.67,0.02,112.01c0.01,3.7-1.21,4.37-4.56,4.35
			c-23.32-0.13-46.64-0.05-69.96-0.09c-2.08,0-3.77,0.13-4.37,2.56c-2.58,10.36-8.34,18.99-14.87,27.21
			c-0.53,0.67-1.43,1.29-1.01,2.3c0.45,1.07,1.53,0.63,2.36,0.7c0.76,0.07,1.53,0.05,2.29,0.05c39.5-0.01,79-0.08,118.51,0.04
			c3.75,0.01,4.33-1.4,4.32-4.64c-0.1-24.97-0.05-49.95-0.06-74.93c0-23.32-0.11-46.64,0.04-69.96c0.08-12.74-2.7-24.66-8.94-35.77
			c-7.37-13.11-17.42-22.63-29.94-28.77c-1.75,11.59-4.49,22.85-8.05,33.73C633.44,498.05,638.12,508.43,638.07,521.56z"/>
		<path class="st1" d="M460.13,637.82c0.12,0.25,0.24,0.5,0.36,0.76c3.04,3.83,6.67,7.19,9.14,11.48c2.15,1.77,4.41,3.42,6.42,5.33
			c2.08,1.97,3.71,1.53,5.52-0.31c5.94-6.05,11.79-12.19,17.97-17.98c2.64-2.48,2.46-3.48-0.47-5.5c-3.36-2.31-6.18-4.93-8.57-7.78
			c-10.82,3.56-22.01,6.3-33.53,8.06C458.02,633.85,459.08,635.83,460.13,637.82z"/>
	</g>
</g>
</svg>
