<?xml version="1.0" encoding="utf-8"?>
<!-- Generator: Adobe Illustrator 23.0.6, SVG Export Plug-In . SVG Version: 6.00 Build 0)  -->
<svg version="1.1" id="Layer_1" xmlns="http://www.w3.org/2000/svg" xmlns:xlink="http://www.w3.org/1999/xlink" x="0px" y="0px"
	 viewBox="0 0 850.39 850.39" style="enable-background:new 0 0 850.39 850.39;" xml:space="preserve">
<style type="text/css">
	.st0{fill:#FFFFFF;}
</style>
<g>
	<g>
		<g>
			<g>
				<path class="st0" d="M674.63,422.27c2.8,0.82,5.72-0.79,6.54-3.59c0.51-1.76,0.07-3.57-1.03-4.87c0.58,0.98,0.77,2.19,0.43,3.37
					c-0.66,2.27-3.03,3.57-5.3,2.91c-2.27-0.66-3.57-3.03-2.91-5.3c0.34-1.18,1.15-2.1,2.17-2.61c-1.63,0.51-2.97,1.8-3.49,3.56
					C670.23,418.53,671.83,421.46,674.63,422.27z"/>
				<path class="st0" d="M700.19,462.72c-17.69-10.24-21.41-14.9-22.35-17.69v-0.72c0.57-0.51,0.93-1.24,0.93-2.07
					c0-0.78-0.32-1.48-0.83-1.99c0.04-1.48,0.06-3.39,0.04-5.38c0.49-0.5,0.79-1.19,0.79-1.94c0-0.81-0.35-1.54-0.91-2.05
					c-0.21-3.92-0.73-7.26-1.88-7.26c-1.15,0-1.67,3.34-1.88,7.26c-0.56,0.51-0.91,1.24-0.91,2.05c0,0.76,0.3,1.44,0.79,1.94
					c-0.02,1.99,0.01,3.9,0.04,5.38c-0.51,0.51-0.83,1.21-0.83,1.99c0,0.82,0.36,1.56,0.93,2.07v0.72
					c-0.93,2.79-4.66,7.45-22.35,17.69c-17.69,10.24-13.97,34.45-13.97,34.45h10.32c0,0-2.72-17.67,10.19-25.14
					c8.56-4.95,12.64-8.12,14.61-10.28c0.79-0.86,1.89-1.36,3.05-1.36c1.16,0,2.27,0.5,3.05,1.36c1.98,2.16,6.05,5.33,14.61,10.28
					c12.91,7.47,10.19,25.14,10.19,25.14h10.32C714.16,497.17,717.88,472.96,700.19,462.72z"/>
			</g>
			<g>
				<path class="st0" d="M605.74,425.55v71.62h6.65v-52.73c0-8.09,6.5-14.75,14.59-14.8c0.08,0,0.17,0,0.25,0c0.08,0,0.17,0,0.25,0
					c8.09,0.05,14.59,6.71,14.59,14.8v21.36c1.81-2.11,4.01-4.05,6.65-5.73v-34.52c0,0-9.21-2.05-21.49-2.05
					C614.95,423.5,605.74,425.55,605.74,425.55z"/>
				<path class="st0" d="M627.23,410.2c-17.84,0-30.35,3.86-30.35,3.86v1.59v7.31c0,0,14.81-3.86,30.35-3.86
					c15.54,0,30.35,3.86,30.35,3.86v-7.31v-1.59C657.58,414.06,645.07,410.2,627.23,410.2z"/>
				<path class="st0" d="M651.37,408.84v-4.97v-1.94c0,0-9.95-3.07-24.14-3.07c-14.19,0-24.14,3.07-24.14,3.07v1.94v4.97
					c0,0,11.78-3.07,24.14-3.07C639.59,405.76,651.37,408.84,651.37,408.84z"/>
				<path class="st0" d="M639.54,395.79c-1.54-5.9-10.6-9.12-10.6-9.12v-2.13v-6.27l-1.16-33.39c0-1.15-1.02-1.17-1.02,0
					l-1.23,33.39v6.27v2.13c0,0-9.06,3.21-10.6,9.12c3.52-0.44,7.69-0.77,12.31-0.77C631.85,395.02,636.01,395.35,639.54,395.79z"/>
			</g>
		</g>
		<g>
			<path class="st0" d="M554.39,465.65c-3.55-3.27-6.93-6.74-10.35-10.16c-4.81-4.82-9.57-9.7-14.38-14.52
				c-4.77-4.78-9.55-9.56-14.39-14.27c-1.25-1.22-1.14-2,0.08-3.2c7.68-7.58,15.27-15.26,22.94-22.85c1-0.99,1.23-1.71,0.57-3.07
				c-1.93-4-3.38-8.17-3.73-12.65c-0.05-0.7,0.27-1.7-0.43-2c-0.81-0.35-1.21,0.72-1.8,1.15c-0.29,0.21-0.51,0.51-0.76,0.76
				c-3.27,3.31-6.53,6.63-9.82,9.93c-4.51,4.53-9.03,9.04-13.55,13.55c-2.66,2.65-5.37,5.26-8.04,7.9
				c-2.63,2.61-5.24,5.24-7.85,7.87c-0.72,0.72-0.75,1.35,0.09,2.1c1.33,1.2,2.55,2.52,3.82,3.79c9.86,9.86,19.68,19.76,29.58,29.57
				c6.44,6.37,12.41,13.25,19.44,18.98c7.41,6.04,16.19,7.6,25.46,6.29c1.74-0.24,3.4-0.64,5-1.16c-3.25-4.41-6.13-9.1-8.62-14.03
				C562.75,469.98,558.17,469.14,554.39,465.65z"/>
			<path class="st0" d="M616.73,322.14c4.28-4.19,8.55-8.4,12.79-12.64c8.3-8.31,16.58-16.65,24.84-25
				c0.78-0.79,1.33-1.28,2.21-0.09c0.67,0.9,1.58,1.61,2.39,2.41c2.97,2.94,5.95,5.88,8.92,8.83c4.2,4.17,8.42,8.31,12.57,12.53
				c0.91,0.92,1.62,0.86,2.67,0.32c2.35-1.21,4.82-2.09,7.38-2.8c2.48-0.69,5.01-0.93,8.02-1.17c-1.9-1.93-3.47-3.54-5.06-5.13
				c-12.11-12.11-24.21-24.21-36.33-36.31c-1.66-1.66-1.68-1.63-3.36,0.1c-3.28,3.38-6.54,6.78-9.88,10.11
				c-5.41,5.39-10.91,10.7-16.3,16.1c-7.42,7.43-14.81,14.9-22.17,22.39c-8.24,8.38-11.3,18.4-9.29,29.96
				c0.25,1.42,0.61,2.77,1.03,4.09c4.36-3.22,9-6.07,13.86-8.55C610.37,331.88,612.33,326.44,616.73,322.14z"/>
			<path class="st0" d="M817.98,423.96c-10.25-10.22-20.52-20.41-30.75-30.64c-6.18-6.17-12.3-12.41-18.48-18.58
				c-1.3-1.3-2.77-2.44-4.16-3.65c-6.61-4.35-13.76-6.52-21.76-5.84c-2.71,0.23-5.27,0.75-7.71,1.53c3.2,4.35,6.05,8.98,8.51,13.83
				c4.66-0.49,9.43,0.87,13.21,4.2c3.14,2.76,6.04,5.79,9,8.75c4.77,4.78,9.49,9.62,14.26,14.4c4.6,4.61,9.3,9.14,13.83,13.82
				c1.08,1.11,3.17,1.89,2.91,3.59c-0.23,1.5-1.99,2.46-3.12,3.6c-7.08,7.14-14.2,14.24-21.35,21.3c-0.72,0.71-0.69,1.14-0.27,1.98
				c1.29,2.57,2.31,5.25,3.06,8.04c0.65,2.41,0.91,4.88,1.18,7.64c0.65-0.57,1.06-0.9,1.43-1.28c8.97-8.96,17.93-17.94,26.91-26.9
				c4.76-4.75,9.56-9.46,14.35-14.19C819.04,424.79,818.44,424.41,817.98,423.96z"/>
			<path class="st0" d="M595.72,519.27c0.09,0.94,0.46,1.22,1.36,1.2c2.22-0.04,4.45-0.01,6.67-0.01c0,0,0,0,0,0
				c2.1,0,4.21-0.05,6.31,0.02c1.28,0.04,1.66-0.25,1.35-1.64c-0.45-1.98-0.58-3.9-0.41-5.75c-4.84-2.47-9.46-5.31-13.79-8.51
				C595.73,509.13,595.24,514.02,595.72,519.27z"/>
			<path class="st0" d="M715.5,331.29c-0.09-0.99-0.41-1.37-1.41-1.34c-2.16,0.05-4.33,0.02-6.49,0.02v-0.02
				c-2.04,0-4.09,0.06-6.13-0.02c-1.47-0.05-1.98,0.2-1.59,1.91c0.42,1.85,0.55,3.65,0.39,5.4c4.84,2.46,9.46,5.3,13.81,8.49
				C715.49,341.26,715.96,336.43,715.5,331.29z"/>
			<path class="st0" d="M565.73,365.06c-0.72,0-1.44-0.01-2.16,0c-3.19,0.06-3.16,0.08-3.2,3.19c-0.04,3.65-0.18,7.31-0.23,10.96
				c-0.02,1.21-0.01,2.33,1.9,1.72c1.28-0.41,2.73-0.52,4.08-0.44c0.54,0.03,1.07,0.09,1.59,0.16c2.47-4.87,5.32-9.51,8.54-13.88
				C572.99,365.67,569.5,365.06,565.73,365.06z"/>
			<path class="st0" d="M555.27,379.74c0.08-17.61,0.06-35.22-0.01-52.83c-0.01-1.75,0.57-2.06,2.15-2.05c11,0.06,22,0.02,33,0.04
				c0.98,0,1.78-0.06,2.06-1.21c1.22-4.89,3.94-8.96,7.02-12.83c0.25-0.32,0.67-0.61,0.48-1.08c-0.21-0.51-0.72-0.3-1.12-0.33
				c-0.36-0.03-0.72-0.03-1.08-0.03c-18.63,0.01-37.27,0.04-55.9-0.02c-1.77-0.01-2.04,0.66-2.04,2.19
				c0.05,11.78,0.03,23.56,0.03,35.34c0,11,0.05,22-0.02,33c-0.04,6.01,1.27,11.63,4.22,16.87c3.48,6.19,8.22,10.67,14.12,13.57
				c0.82-5.47,2.12-10.78,3.8-15.91C557.45,390.83,555.24,385.94,555.27,379.74z"/>
			<path class="st0" d="M699.09,324.99c18.27-0.17,36.55-0.06,54.83-0.15c1.76-0.01,2.05,0.6,2.04,2.15
				c-0.05,10.94,0,21.88-0.05,32.83c-0.01,1.37,0.35,2.03,1.73,2.4c4.48,1.19,8.31,3.62,11.87,6.52c0.46,0.38,0.87,1.03,1.49,0.81
				c0.72-0.26,0.39-1.05,0.39-1.6c0.02-18.88,0-37.76,0.05-56.63c0-1.53-0.46-1.91-1.93-1.9c-11.78,0.05-23.57,0.03-35.35,0.03
				c-11.48,0-22.97-0.02-34.45,0.01c-3.25,0.01-6.48,0.41-9.56,1.45c-8.86,2.98-15.79,8.95-19.71,16.78
				c5.48,0.82,10.81,2.11,15.96,3.8C689.58,327.47,693.82,325.04,699.09,324.99z"/>
			<path class="st0" d="M610.91,525.5c-17.91,0.03-35.82-0.01-53.73,0.04c-1.49,0-1.93-0.39-1.92-1.9
				c0.07-11.06,0.03-22.12,0.08-33.17c0.01-1.2-0.31-1.82-1.53-2.2c-3.25-1.03-6.3-2.5-9.15-4.43c-1.55-1.05-3.03-2.2-4.71-3.56
				c-0.06,0.73-0.12,1.07-0.12,1.42c0,19.17,0.03,38.34-0.02,57.51c0,1.72,0.84,1.78,2.13,1.78c23.38-0.02,46.76-0.01,70.14-0.02
				c3.7,0,7.25-0.88,10.69-2.15c4.51-1.66,8.37-4.35,11.9-7.56c1.27-1.95,2.87-3.63,4.35-5.4c0.27-1.18,0.92-2.17,1.53-3.19
				c-5.39-0.83-10.63-2.12-15.69-3.78C621.57,522.92,616.57,525.49,610.91,525.5z"/>
			<path class="st0" d="M763.92,401.72c0.81-0.93,1.43-1.87,0.16-3.07c-2.94-2.79-5.8-5.67-8.66-8.54
				c-0.84-0.85-1.34-1.28-2.27,0.07c-1.14,1.64-2.42,3.01-3.8,4.16c1.69,5.14,2.99,10.45,3.83,15.92
				C757.29,408.14,760.86,405.26,763.92,401.72z"/>
			<path class="st0" d="M547.11,448.93c-0.91,1.11-0.81,1.77,0.15,2.7c2.88,2.81,5.75,5.63,8.53,8.54c1.06,1.11,1.54,1.15,2.47-0.21
				c1.1-1.61,2.34-2.95,3.7-4.08c-1.67-5.12-2.96-10.41-3.78-15.85C553.98,442.12,550.28,445.06,547.11,448.93z"/>
			<path class="st0" d="M639.2,324.9c-0.06-0.12-0.11-0.24-0.17-0.36c-1.43-1.81-3.15-3.39-4.31-5.41
				c-1.01-0.83-2.08-1.61-3.03-2.51c-0.98-0.93-1.75-0.72-2.6,0.15c-2.8,2.85-5.56,5.75-8.47,8.48c-1.25,1.17-1.16,1.64,0.22,2.59
				c1.58,1.09,2.92,2.32,4.04,3.67c5.1-1.68,10.38-2.97,15.82-3.8C640.2,326.78,639.7,325.84,639.2,324.9z"/>
			<polygon class="st0" points="639.03,525.85 639.03,525.85 639.03,525.85 			"/>
			<path class="st0" d="M694.64,528.25c-4.28,4.19-8.55,8.4-12.79,12.64c-8.3,8.31-16.58,16.65-24.84,25
				c-0.78,0.79-1.33,1.28-2.21,0.09c-0.67-0.9-1.58-1.61-2.39-2.41c-2.97-2.94-5.95-5.88-8.92-8.83c-4.2-4.17-8.42-8.31-12.57-12.53
				c-0.91-0.92-1.62-0.86-2.67-0.32c-2.35,1.21-4.82,2.09-7.38,2.8c-2.48,0.69-5.01,0.93-8.02,1.17c1.9,1.93,3.47,3.54,5.06,5.13
				c12.11,12.11,24.21,24.21,36.33,36.31c1.66,1.66,1.68,1.63,3.36-0.1c3.28-3.38,6.54-6.78,9.88-10.11
				c5.41-5.39,10.91-10.7,16.3-16.1c7.42-7.43,14.81-14.9,22.17-22.39c8.24-8.38,11.3-18.4,9.29-29.96
				c-0.25-1.42-0.61-2.77-1.03-4.09c-4.36,3.22-9,6.07-13.86,8.55C700.99,518.51,699.03,523.95,694.64,528.25z"/>
			<path class="st0" d="M745.63,485.34c0.72,0,1.44,0.01,2.16,0c3.19-0.06,3.16-0.08,3.2-3.19c0.04-3.65,0.18-7.31,0.23-10.96
				c0.02-1.21,0-2.33-1.9-1.72c-1.28,0.41-2.73,0.52-4.08,0.44c-0.54-0.03-1.07-0.09-1.59-0.16c-2.47,4.87-5.32,9.51-8.54,13.88
				C738.38,484.72,741.86,485.34,745.63,485.34z"/>
			<path class="st0" d="M756.09,470.65c-0.08,17.61-0.06,35.22,0.01,52.83c0.01,1.75-0.57,2.06-2.15,2.05c-11-0.06-22-0.02-33-0.04
				c-0.98,0-1.78,0.06-2.06,1.21c-1.22,4.89-3.94,8.96-7.02,12.83c-0.25,0.32-0.67,0.61-0.48,1.08c0.21,0.51,0.72,0.3,1.11,0.33
				c0.36,0.03,0.72,0.03,1.08,0.03c18.63-0.01,37.27-0.04,55.9,0.02c1.77,0.01,2.04-0.66,2.04-2.19
				c-0.05-11.78-0.03-23.56-0.03-35.34c0-11-0.05-22,0.02-33c0.04-6.01-1.27-11.63-4.22-16.87c-3.48-6.19-8.22-10.67-14.12-13.57
				c-0.82,5.47-2.12,10.78-3.8,15.91C753.91,459.56,756.12,464.46,756.09,470.65z"/>
			<path class="st0" d="M672.16,525.49c0.06,0.12,0.11,0.24,0.17,0.36c1.44,1.81,3.15,3.39,4.31,5.41c1.01,0.83,2.08,1.61,3.03,2.51
				c0.98,0.93,1.75,0.72,2.6-0.15c2.8-2.85,5.56-5.75,8.47-8.48c1.25-1.17,1.16-1.64-0.22-2.59c-1.58-1.09-2.92-2.32-4.04-3.67
				c-5.1,1.68-10.38,2.97-15.82,3.8C671.16,523.62,671.66,524.55,672.16,525.49z"/>
		</g>
	</g>
	<g>
		<g>
			<path class="st0" d="M57.73,474.64c0,7.88-1.39,14-4.18,18.36c-2.79,4.36-6.91,6.54-12.36,6.54c-2.55,0-5.82-0.18-9.82-0.55
				v15.27l4.36,0.36c3.27,0.36,6.3,0.55,9.09,0.55c10.06,0,17.57-3.79,22.54-11.36c4.97-7.58,7.45-18.51,7.45-32.81v-91.8H57.73
				V474.64z"/>
			<path class="st0" d="M294.95,388.48h-41.63l6-11.27c4.73-9.09,11.15-19.69,19.27-31.81l-12.36-7.09
				c-4.24,5.09-8.52,10.63-12.82,16.63c-4.3,6-7.61,11.24-9.91,15.72l-10,19.45l10.36,13.82h49.08c5.7,0.12,9.94,2.67,12.72,7.63
				c2.79,4.97,4.18,10.85,4.18,17.63v25.27h-189.6V340.49h-17.27v129.43h223.96v-40.54c0-11.03-2.45-20.6-7.36-28.72
				C314.68,392.54,306.47,388.48,294.95,388.48z"/>
			<rect x="358.94" y="339.39" class="st0" width="16.54" height="17.82"/>
			<path class="st0" d="M397.75,381.3c-7.09-4.18-15-6.27-23.72-6.27c-3.64,0-7.52,0.3-11.63,0.91c-4.12,0.61-7.09,1.21-8.91,1.82
				l1.27,12.91h15.82c8.97,0,16.78,3.54,23.45,10.63c6.66,7.09,10,19.24,10,36.45v16.72h-58.9v15.45h75.99v-33.08
				c0-14.42-2.12-26.24-6.36-35.45C410.51,392.18,404.84,385.48,397.75,381.3z"/>
			<rect x="444.92" y="340.49" class="st0" width="17.27" height="129.43"/>
		</g>
		<g>
			<path class="st0" d="M114.48,484.09l-11.49,44.39h6.13l2.77-10.39h17.94l2.77,10.39h6.13l-11.49-44.39H114.48z M113.19,512.61
				l6-23.29h3.36l6,23.29H113.19z"/>
			<path class="st0" d="M199.43,496.41c-2.75-0.6-5.27-0.9-7.55-0.9c-4.73,0-8.17,1.37-10.32,4.1c-2.15,2.73-3.23,7.15-3.23,13.26
				c0,5.51,0.9,9.6,2.71,12.29c1.81,2.69,4.8,4.03,8.97,4.03c2.92,0,6.07-0.88,9.42-2.65v1.94h6v-45.94h-6V496.41z M199.43,521.83
				l-1.16,0.45c-0.99,0.39-2.15,0.73-3.48,1.03c-1.33,0.3-2.52,0.45-3.55,0.45c-2.45,0-4.18-0.9-5.19-2.71
				c-1.01-1.81-1.52-4.65-1.52-8.52c0-4.26,0.6-7.29,1.81-9.1c1.2-1.81,3.29-2.71,6.26-2.71c1.89,0,4.17,0.26,6.84,0.77V521.83z"/>
			<path class="st0" d="M267.15,497.09c-1.55-1.05-3.7-1.58-6.45-1.58c-1.59,0-3.14,0.19-4.65,0.58c-1.51,0.39-3.18,1.01-5.03,1.87
				v-15.42h-6v45.94h6v-25.94l1.1-0.39c2.37-0.82,4.65-1.23,6.84-1.23c1.76,0,3.11,0.32,4.03,0.97c0.92,0.65,1.56,1.7,1.9,3.16
				c0.34,1.46,0.52,3.59,0.52,6.39v17.03h6v-17.16c0-3.87-0.32-6.95-0.97-9.23C269.8,499.81,268.7,498.14,267.15,497.09z"/>
			<polygon class="st0" points="336.62,496.22 329.84,496.22 321.52,508.99 317,509.38 317,482.54 311,482.54 311,528.48 
				317,528.48 317,514.54 321.65,514.22 330.29,528.48 337.07,528.48 326.81,511.19 			"/>
			<path class="st0" d="M402.08,521.64v-15.55c0-3.66-0.86-6.33-2.58-8.03c-1.72-1.7-4.47-2.55-8.26-2.55
				c-3.91,0-8.15,0.54-12.71,1.61l0.19,4.39c4.73-0.52,8.9-0.77,12.52-0.77c1.59,0,2.8,0.42,3.61,1.26c0.82,0.84,1.23,2.21,1.23,4.1
				v2.52l-9.16,0.84c-3.57,0.34-6.17,1.26-7.81,2.74c-1.64,1.48-2.45,3.82-2.45,7c0,3.23,0.8,5.7,2.39,7.42
				c1.59,1.72,3.91,2.58,6.97,2.58c3.66,0,7.31-0.84,10.97-2.52c0.99,0.86,2.13,1.5,3.42,1.9c1.29,0.41,2.86,0.61,4.71,0.61
				l0.19-4.65c-1.08-0.17-1.86-0.48-2.36-0.94C402.46,523.16,402.17,522.5,402.08,521.64z M396.08,522.48l-1.35,0.45
				c-2.45,0.82-4.99,1.23-7.61,1.23c-2.88,0-4.32-1.72-4.32-5.16c0-1.63,0.4-2.87,1.19-3.71c0.8-0.84,2.03-1.34,3.71-1.52l8.39-0.77
				V522.48z"/>
			<path class="st0" d="M450.84,500.28v-4.07h-5.94v32.26h6v-23.04l1.55-0.71c1.2-0.56,2.71-1.14,4.52-1.74
				c1.81-0.6,3.55-1.08,5.23-1.42v-6.07C458.45,496.24,454.67,497.83,450.84,500.28z"/>
		</g>
	</g>
</g>
</svg>
